# xmcd CD database file
#
# Track frame offsets:
#	150
#	28449
#	56514
#	91682
#	124112
#	151967
#	176563
#	202531
#	229970
#	256891
#
# Disc length: 3808 seconds
#
# Revision: 1
# Processed by: cddbd v1.5.2PL0 Copyright (c) Steve Scherf et al.
# Submitted via: CDex 1.51
#
DISCID=790ede0a
DTITLE=Artisti Vari - Ready for sea
DYEAR=1900
DGENRE=New Age
TTITLE0=Beach a.m.
TTITLE1=Raining melancholy
TTITLE2=Long march
TTITLE3=Sunny day
TTITLE4=Nordic sea
TTITLE5=Among friends
TTITLE6=Timeless
TTITLE7=Campfire
TTITLE8=To be ready for holiday
TTITLE9=Ready for sea
EXTD=
EXTT0=
EXTT1=
EXTT2=
EXTT3=
EXTT4=
EXTT5=
EXTT6=
EXTT7=
EXTT8=
EXTT9=
PLAYORDER=
